<?xml version="1.0" encoding="iso-8859-1"?>
<!-- Generator: Adobe Illustrator 19.0.0, SVG Export Plug-In . SVG Version: 6.00 Build 0)  -->
<svg version="1.1" id="Layer_1" xmlns="http://www.w3.org/2000/svg" xmlns:xlink="http://www.w3.org/1999/xlink" x="0px" y="0px"
	 viewBox="0 0 512 512" style="enable-background:new 0 0 512 512;" xml:space="preserve">
<circle style="fill:#2D4452;" cx="256" cy="256" r="256"/>
<path style="fill:#F5F5F5;" d="M196,72h176c4.4,0,8,3.6,8,8v328c0,4.4-3.6,8-8,8H124c-4.4,0-8-3.6-8-8V156L196,72z"/>
<path style="fill:#E6E6E6;" d="M188,156c4.4,0,8-3.6,8-8V72l-80,84H188z"/>
<path style="fill:#E16B5A;" d="M244,208c-22.088,0-40,17.912-40,40h40V208z"/>
<path style="fill:#2179A6;" d="M252,216v40h-40c0,22.088,17.912,40,40,40s40-17.912,40-40S274.088,216,252,216z"/>
<g>
	<rect x="300" y="216" style="fill:#B3B3B3;" width="44" height="8"/>
	<rect x="152" y="216" style="fill:#B3B3B3;" width="44" height="8"/>
	<rect x="132" y="228" style="fill:#B3B3B3;" width="64" height="8"/>
	<rect x="132" y="240" style="fill:#B3B3B3;" width="64" height="8"/>
	<rect x="300" y="232" style="fill:#B3B3B3;" width="64" height="8"/>
	<rect x="300" y="244" style="fill:#B3B3B3;" width="64" height="8"/>
	<rect x="300" y="256" style="fill:#B3B3B3;" width="64" height="8"/>
	<rect x="300" y="268" style="fill:#B3B3B3;" width="64" height="8"/>
	<rect x="300" y="280" style="fill:#B3B3B3;" width="64" height="8"/>
	<rect x="132" y="316" style="fill:#B3B3B3;" width="88" height="12"/>
	<rect x="132" y="336" style="fill:#B3B3B3;" width="232" height="8"/>
	<rect x="132" y="348" style="fill:#B3B3B3;" width="232" height="8"/>
	<rect x="132" y="360" style="fill:#B3B3B3;" width="232" height="8"/>
	<rect x="132" y="372" style="fill:#B3B3B3;" width="232" height="8"/>
</g>
<g>
</g>
<g>
</g>
<g>
</g>
<g>
</g>
<g>
</g>
<g>
</g>
<g>
</g>
<g>
</g>
<g>
</g>
<g>
</g>
<g>
</g>
<g>
</g>
<g>
</g>
<g>
</g>
<g>
</g>
</svg>
