<?xml version="1.0"?>
<svg xmlns="http://www.w3.org/2000/svg" xmlns:xlink="http://www.w3.org/1999/xlink" version="1.1" id="Layer_1" x="0px" y="0px" viewBox="0 0 512.007 512.007" style="enable-background:new 0 0 512.007 512.007;" xml:space="preserve" width="512px" height="512px" class=""><g><path d="M414.96,117.813c-1.917-3.672-6.447-5.097-10.119-3.18l-24.253,12.654c3.965-13.595,1.813-27.788-5.978-38.507  c-1.805-2.483-4.94-3.617-7.914-2.859c-13.792,3.505-25.149,14.243-30.381,28.724c-1.355,3.75-2.223,7.569-2.636,11.37  c-3.187-2.112-6.679-3.885-10.429-5.24c-14.479-5.231-29.998-3.36-41.509,5.006c-2.482,1.805-3.615,4.939-2.859,7.914  c3.505,13.792,14.243,25.149,28.724,30.381c0.499,0.18,1,0.343,1.5,0.506l-18.372,9.585c-10.996,5.737-20.225,13.816-27.229,23.44  V79.078c15.389-0.656,30.848-8.237,42.495-21.146c13.512-14.976,19.388-34.321,15.718-51.747c-0.67-3.184-3.318-5.572-6.554-5.913  c-17.709-1.864-36.351,5.963-49.863,20.939c-3.716,4.119-6.832,8.575-9.353,13.224c-2.521-4.649-5.637-9.106-9.353-13.225  C233.081,6.235,214.438-1.594,196.73,0.272c-3.236,0.341-5.883,2.729-6.554,5.913c-3.67,17.426,2.206,36.771,15.718,51.747  c11.677,12.943,27.182,20.527,42.609,21.15v118.526c-7.004-9.624-16.233-17.703-27.229-23.44l-18.371-9.585  c0.501-0.163,1.002-0.326,1.5-0.506c14.481-5.232,25.219-16.589,28.724-30.381c0.756-2.975-0.377-6.109-2.859-7.914  c-11.511-8.366-27.028-10.238-41.509-5.006c-3.75,1.355-7.242,3.128-10.429,5.24c-0.413-3.801-1.281-7.62-2.636-11.37  c-5.232-14.481-16.589-25.218-30.381-28.724c-2.975-0.756-6.11,0.377-7.914,2.859c-7.791,10.719-9.943,24.912-5.978,38.507  l-24.253-12.654c-3.672-1.917-8.203-0.493-10.119,3.18c-1.916,3.672-0.492,8.203,3.18,10.119l38.529,20.102  c-8.255,5.019-13.781,14.1-13.781,24.447c0,15.764,12.825,28.589,28.588,28.589c15.764,0,28.589-12.825,28.589-28.589  c0-0.618-0.027-1.23-0.066-1.839l32.248,16.825c21.076,10.996,34.168,32.594,34.168,56.366v28.207v0.516H111.713  c-4.142,0-7.5,3.358-7.5,7.5s3.358,7.5,7.5,7.5h8.532v176.861c0,0.003,0,0.006,0,0.01s0,0.006,0,0.01v16.023  c0,17.396,14.153,31.548,31.549,31.548h208.419c17.396,0,31.549-14.152,31.549-31.548V287.555h8.532c4.142,0,7.5-3.358,7.5-7.5  s-3.358-7.5-7.5-7.5H263.504v-0.516v-28.207c0-23.772,13.092-45.37,34.168-56.366l32.248-16.825  c-0.039,0.609-0.066,1.221-0.066,1.839c0,15.764,12.825,28.589,28.589,28.589c15.764,0,28.588-12.825,28.588-28.589  c0-10.347-5.526-19.428-13.781-24.447l38.529-20.102C415.452,126.016,416.876,121.486,414.96,117.813z M153.564,186.07  c-7.493,0-13.588-6.096-13.588-13.589c0-7.493,6.096-13.588,13.588-13.588c7.493,0,13.589,6.096,13.589,13.588  C167.153,179.974,161.057,186.07,153.564,186.07z M193.855,134.882c7.7-2.782,15.988-2.604,22.767,0.303  c-3.355,6.568-9.616,12.002-17.315,14.784c-7.7,2.783-15.987,2.605-22.767-0.303C179.895,143.098,186.155,137.664,193.855,134.882z   M146.801,102.426c6.568,3.356,12.002,9.616,14.784,17.315c2.782,7.7,2.604,15.987-0.303,22.767  c-6.568-3.355-12.002-9.616-14.784-17.315S143.895,109.205,146.801,102.426z M276.436,31.26  c8.626-9.561,20.196-15.443,31.306-16.175c0.411,11.127-4.254,23.238-12.88,32.799c-8.626,9.561-20.196,15.443-31.306,16.174  C263.145,52.932,267.81,40.82,276.436,31.26z M248.337,64.058c-11.11-0.732-22.681-6.615-31.306-16.174  c-8.626-9.561-13.292-21.672-12.88-32.799c11.11,0.733,22.681,6.615,31.306,16.174C244.083,40.82,248.748,52.932,248.337,64.058z   M376.762,456.397c-14.092-1.883-27.893-8.722-43.501-16.48c-1.132-0.563-2.274-1.13-3.423-1.699  c3.854-9.476,5.811-19.507,5.811-29.905c0-41.386-31.734-75.488-72.145-79.282v-16.908c0-4.142-3.358-7.5-7.5-7.5  s-7.5,3.358-7.5,7.5v16.908c-40.411,3.794-72.145,37.895-72.145,79.282c0,10.398,1.957,20.429,5.81,29.904  c-1.149,0.569-2.291,1.136-3.424,1.699c-2.084,1.036-4.152,2.064-6.208,3.072c-3.719,1.824-5.254,6.318-3.43,10.037  c1.825,3.719,6.319,5.253,10.037,3.43c2.078-1.02,4.169-2.059,6.277-3.106c21.269-10.571,43.262-21.502,70.582-21.502  s49.313,10.931,70.582,21.502c16.824,8.362,32.832,16.318,50.177,18.172v8.938c0,9.125-7.424,16.548-16.549,16.548H151.794  c-9.125,0-16.549-7.423-16.549-16.548v-8.946c3.352-0.36,6.76-0.953,10.291-1.805c4.027-0.972,6.503-5.023,5.532-9.05  s-5.026-6.503-9.05-5.532c-2.325,0.561-4.573,0.982-6.773,1.28v-168.85h241.517V456.397z M282.865,419.944  c-3.464-11.8-16.321-16.092-24.28-18.746c-12.759-4.253-14.912-6.807-14.912-10.921c0-2.662,4.885-6.528,12.54-6.528  c7.655,0,12.541,3.867,12.541,6.528c0,4.142,3.358,7.5,7.5,7.5s7.5-3.358,7.5-7.5c0-10.091-8.456-18.35-20.25-20.79v-1.254  c0-4.142-3.358-7.5-7.5-7.5s-7.5,3.358-7.5,7.5v1.345c-11.574,2.548-19.831,10.728-19.831,20.699  c0,16.762,15.755,22.014,25.168,25.152c1.507,0.502,2.862,0.981,4.084,1.442c-0.639-0.011-1.277-0.024-1.922-0.024  c-23.093,0-42.721,6.872-60.259,14.864c-2.896-7.429-4.386-15.271-4.386-23.398c0-35.646,29-64.646,64.645-64.646  s64.645,29,64.645,64.646c0,8.127-1.49,15.968-4.386,23.398C305.947,427.011,294.907,422.7,282.865,419.944z M358.443,186.07  c-7.493,0-13.589-6.096-13.589-13.589c0-7.493,6.096-13.588,13.589-13.588c7.493,0,13.588,6.096,13.588,13.588  C372.031,179.974,365.936,186.07,358.443,186.07z M350.422,119.741c2.782-7.699,8.216-13.959,14.784-17.315  c2.907,6.779,3.084,15.067,0.303,22.767s-8.216,13.96-14.784,17.315C347.818,135.729,347.64,127.441,350.422,119.741z   M295.385,135.185c6.779-2.907,15.067-3.084,22.767-0.303s13.96,8.216,17.315,14.784c-6.779,2.907-15.066,3.085-22.767,0.303  C305.001,147.187,298.741,141.753,295.385,135.185z" data-original="#000000" class="active-path" data-old_color="#fa180c" fill="#fa180c"/></g> </svg>
